<svg width="16" version="1.1" xmlns="http://www.w3.org/2000/svg" height="16">
<defs id="defs1">
<style type="text/css" id="current-color-scheme">
.ColorScheme-Text {
color:#000;
}
</style>
</defs>
<path style="fill:currentColor;fill-opacity:1;stroke:none" id="path4597" d="m 12,3 v 2.7207 c -0.892431,-1.95984 -2.84654,-3.21856 -5,-3.2207 -3.03757,0 -5.5,2.46243 -5.5,5.5 0,3.03757 2.46243,5.5 5.5,5.5 2.15437,-0.0028 4.10872,-1.26325 5,-3.22461 -0.000267,-0.0925 0,-0.183053 0,-0.275391 -0.321105,-2.9e-05 -0.658909,-1e-06 -0.974609,0 -0.758853,1.52952 -2.31797,2.49782 -4.02539,2.5 -2.48528,0 -4.5,-2.01472 -4.5,-4.5 0,-2.48528 2.01472,-4.5 4.5,-4.5 1.70813,0.00144 3.26818,0.969849 4.02734,2.5 h -2.02734 c -1,0 -1,0 -1,1 h 5 v -5 c -1,0 -1,0 -1,1 z " class="ColorScheme-Text"/>
</svg>
